<?xml version="1.0" encoding="iso-8859-1"?>
<!-- Uploaded to: SVG Repo, www.svgrepo.com, Generator: SVG Repo Mixer Tools -->
<svg height="800px" width="800px" version="1.1" id="Layer_1" xmlns="http://www.w3.org/2000/svg" xmlns:xlink="http://www.w3.org/1999/xlink" 
	 viewBox="0 0 511.996 511.996" xml:space="preserve">
<path style="fill:#656D78;" d="M96.001,0C72.47,0,53.33,19.14,53.33,42.671v383.992c0,5.891,4.766,10.672,10.672,10.672h53.327V0
	H96.001z"/>
<path style="fill:#E6E9ED;" d="M96.001,394.663c-17.687,0-31.999,14.328-31.999,32s14.312,31.999,31.999,31.999h351.993v-63.999
	H96.001z"/>
<path style="fill:#AC92EB;" d="M458.65,10.671C458.65,4.781,453.869,0,447.994,0H117.329v21.335l0,0v362.656l0,0v21.344h119.263
	h211.402c5.875,0,10.656-4.781,10.656-10.672l0,0L458.65,10.671L458.65,10.671z"/>
<g>
	<path style="fill:#CCD1D9;" d="M191.999,437.335h-85.342c-5.875,0-10.656-4.781-10.656-10.672s4.781-10.671,10.656-10.671h85.342
		c5.891,0,10.656,4.78,10.656,10.671S197.89,437.335,191.999,437.335z"/>
	<path style="fill:#CCD1D9;" d="M362.65,415.992c-5.875,0-10.656,4.78-10.656,10.671s4.781,10.672,10.656,10.672h85.344v-21.343
		H362.65z"/>
</g>
<g>
	<path style="fill:#434A54;" d="M64.002,85.334c5.89,0,10.656-4.773,10.656-10.664c0-5.89-4.766-10.671-10.656-10.671H53.331v21.335
		H64.002z"/>
	<path style="fill:#434A54;" d="M64.002,149.332c5.89,0,10.656-4.773,10.656-10.664s-4.766-10.672-10.656-10.672H53.331v21.335
		L64.002,149.332L64.002,149.332z"/>
	<path style="fill:#434A54;" d="M64.002,213.331c5.89,0,10.656-4.773,10.656-10.664s-4.766-10.671-10.656-10.671H53.331v21.335
		L64.002,213.331L64.002,213.331z"/>
	<path style="fill:#434A54;" d="M64.002,277.338c5.89,0,10.656-4.781,10.656-10.679c0-5.891-4.766-10.672-10.656-10.672H53.331
		v21.351L64.002,277.338L64.002,277.338z"/>
	<path style="fill:#434A54;" d="M64.002,341.337c5.89,0,10.656-4.781,10.656-10.672s-4.766-10.672-10.656-10.672H53.331v21.344
		H64.002z"/>
</g>
<path style="fill:#AC92EB;" d="M458.65,458.662c0-5.89-4.781-10.671-10.656-10.671H236.592H117.329v21.343h330.665
	C453.869,469.334,458.65,464.553,458.65,458.662z"/>
<path style="fill:#656D78;" d="M117.329,447.991H96.001c-11.765,0-21.343-9.562-21.343-21.328c0-11.765,9.578-21.328,21.343-21.328
	h21.328v-21.344H96.001c-23.531,0-42.671,19.141-42.671,42.672s19.14,42.671,42.671,42.671h21.328
	C117.329,469.334,117.329,447.991,117.329,447.991z"/>
<path style="fill:#ED5564;" d="M181.328,426.663h-10.672h-42.655H117.33h-10.672v74.67c0,3.422,1.656,6.641,4.438,8.656
	c2.781,2,6.359,2.547,9.609,1.453l28.624-9.531l28.625,9.531c1.109,0.375,2.234,0.547,3.375,0.547c2.203,0,4.391-0.688,6.234-2
	c2.781-2.016,4.438-5.234,4.438-8.656v-74.67L181.328,426.663L181.328,426.663z"/>
<path style="fill:#E6E9ED;" d="M351.994,149.332c0-41.241-33.436-74.67-74.67-74.67c-41.232,0-74.669,33.429-74.669,74.67
	c0,25.367,12.672,47.78,32,61.272v34.718h85.341v-34.718C339.34,197.113,351.994,174.699,351.994,149.332z"/>
<g>
	<path style="fill:#434A54;" d="M255.998,149.332c0,5.891-4.765,10.664-10.656,10.664s-10.671-4.773-10.671-10.664
		c0-5.89,4.781-10.671,10.671-10.671S255.998,143.442,255.998,149.332z"/>
	<path style="fill:#434A54;" d="M319.23,149.332c0,5.891-4.781,10.664-10.672,10.664s-10.656-4.773-10.656-10.664
		c0-5.89,4.766-10.671,10.656-10.671S319.23,143.442,319.23,149.332z"/>
</g>
<g>
	<path style="fill:#FFCE54;" d="M458.65,394.663v-31.999c-42.656,0.016-42.656,42.671-42.656,42.671h32
		C453.869,405.335,458.65,400.554,458.65,394.663z"/>
	<path style="fill:#FFCE54;" d="M447.994,0h-32c0,42.656,42.672,42.656,42.672,42.656v-32C458.666,4.781,453.885,0,447.994,0z"/>
</g>
<g>
	<path style="fill:#434A54;" d="M362.666,309.337H191.999c-5.891,0-10.656-4.781-10.656-10.671c0-5.891,4.766-10.656,10.656-10.656
		h170.667c5.891,0,10.672,4.766,10.672,10.656C373.338,304.556,368.557,309.337,362.666,309.337z"/>
	<path style="fill:#434A54;" d="M319.996,351.992H234.67c-5.891,0-10.672-4.765-10.672-10.655s4.781-10.672,10.672-10.672h85.326
		c5.891,0,10.672,4.781,10.672,10.672S325.887,351.992,319.996,351.992z"/>
</g>
<g>
	<path style="fill:#CCD1D9;" d="M271.998,234.659c0-5.89-4.781-10.663-10.672-10.663s-10.672,4.773-10.672,10.663v10.664h21.344
		V234.659z"/>
	<path style="fill:#CCD1D9;" d="M293.324,223.996c-5.891,0-10.672,4.773-10.672,10.663v10.664h21.344v-10.664
		C303.996,228.769,299.215,223.996,293.324,223.996z"/>
</g>
</svg>